PathFileType	4	(X/Y/Z)	/Users/itak/Documents/Research/Walk-IL/dataset/trc/00035_00004.trc
DataRate	CameraRate	NumFrames	NumMarkers	Units	OrigDataRate	OrigDataStartFrame	OrigNumFrames
100.000000	100.000000	4	53	mm	100.000000	414	829
Frame#	Time	RPSI			LPSI			L3			STRN			T10			C7			CLAV			RBAK			LBAK			LSHO			LUPA			LAEL			LAOL			LWTS			LWPS			LFRA			LIFD			LHPS			LHTS			RSHO			RUPA			RAEL			RAOL			RWTS			RWPS			RFRA			RIFD			RHTS			RHPS			RBHD			LFHD			RFHD			LBHD			LHIP			RHIP			RASI			LASI			LKNE			LTHI			LANK			LTIP			LTOE			LMT1			LMT5			LHEE			RKNE			RTHI			RANK			RTIP			RTOE			RMT1			RMT5			RHEE			
		X1	Y1	Z1	X2	Y2	Z2	X3	Y3	Z3	X4	Y4	Z4	X5	Y5	Z5	X6	Y6	Z6	X7	Y7	Z7	X8	Y8	Z8	X9	Y9	Z9	X10	Y10	Z10	X11	Y11	Z11	X12	Y12	Z12	X13	Y13	Z13	X14	Y14	Z14	X15	Y15	Z15	X16	Y16	Z16	X17	Y17	Z17	X18	Y18	Z18	X19	Y19	Z19	X20	Y20	Z20	X21	Y21	Z21	X22	Y22	Z22	X23	Y23	Z23	X24	Y24	Z24	X25	Y25	Z25	X26	Y26	Z26	X27	Y27	Z27	X28	Y28	Z28	X29	Y29	Z29	X30	Y30	Z30	X31	Y31	Z31	X32	Y32	Z32	X33	Y33	Z33	X34	Y34	Z34	X35	Y35	Z35	X36	Y36	Z36	X37	Y37	Z37	X38	Y38	Z38	X39	Y39	Z39	X40	Y40	Z40	X41	Y41	Z41	X42	Y42	Z42	X43	Y43	Z43	X44	Y44	Z44	X45	Y45	Z45	X46	Y46	Z46	X47	Y47	Z47	X48	Y48	Z48	X49	Y49	Z49	X50	Y50	Z50	X51	Y51	Z51	X52	Y52	Z52	X53	Y53	Z53	

415	4.14	23.09036254882812	1025.923950195312	-437.7464904785156	-8.132843971252441	1022.855102539062	-599.7462158203125	-1.781832933425903	1085.224487304688	-521.7159423828125	223.9474182128906	1268.063598632812	-547.011962890625	-22.71160888671875	1231.3759765625	-507.4066772460938	41.12332534790039	1496.8779296875	-509.4258422851562	188.5860290527344	1395.140014648438	-536.8746948242188	-8.419624328613281	1357.73291015625	-430.161376953125	0.4326352477073669	1465.184692382812	-601.7105102539062	87.82030487060547	1470.0439453125	-693.5911865234375	17.01802253723145	1360.892578125	-767.78466796875	-42.32919311523438	1156.3828125	-808.4230346679688	-73.96212005615234	1145.95068359375	-707.8319091796875	-5.874106407165527	886.734619140625	-785.0606079101562	-90.29315948486328	893.2655639648438	-815.4464721679688	-58.33756256103516	1041.49755859375	-824.1738891601562	-24.9969539642334	697.9523315429688	-778.7081909179688	-79.68019104003906	797.8902587890625	-824.141357421875	-12.20905876159668	789.9179077148438	-803.9326171875	140.8589477539062	1463.648559570312	-351.4778442382812	129.9053192138672	1393.466064453125	-282.2299194335938	61.48849105834961	1131.021118164062	-255.4469299316406	46.72789001464844	1108.312622070312	-351.1793212890625	211.9737548828125	896.8404541015625	-337.1773681640625	166.2398071289062	862.8233642578125	-265.07666015625	80.31138610839844	1050.984375	-247.8351593017578	261.3102722167969	725.9904174804688	-387.6397399902344	266.2156066894531	798.423095703125	-347.3285522460938	223.1003875732422	773.060302734375	-290.3015441894531	156.7833099365234	1679.697143554688	-575.8917846679688	275.0926208496094	1642.138305664062	-395.8536987304688	313.3716735839844	1654.903564453125	-486.3925170898438	107.9903411865234	1658.395751953125	-442.5105895996094	74.56186676025391	925.4542846679688	-729.5012817382812	139.6980438232422	902.4956665039062	-357.66455078125	235.9162139892578	934.88623046875	-446.7248229980469	193.5509033203125	974.8052978515625	-677.4701538085938	300.6968078613281	535.966064453125	-715.7069091796875	212.9288635253906	645.691650390625	-752.9046630859375	379.8315734863281	48.53721618652344	-790.7392578125	313.9363403320312	294.7800903320312	-772.28125	562.0897827148438	102.9816970825195	-669.5699462890625	502.4601440429688	89.82156372070312	-669.4421997070312	499.197998046875	80.22412872314453	-775.9224243164062	301.7850952148438	32.29781341552734	-759.5689697265625	42.20121383666992	482.0963439941406	-443.8609008789062	132.3968048095703	736.3785400390625	-384.9953308105469	-251.2843170166016	72.24323272705078	-434.2003784179688	-25.40720176696777	368.7490234375	-444.8512268066406	-103.1123886108398	36.79864501953125	-610.9280395507812	-164.160888671875	53.0511589050293	-593.0772094726562	-122.7042846679688	39.3489875793457	-505.2822570800781	-318.7402648925781	96.88497161865234	-440.4735412597656	
416	4.15	32.1204719543457	1025.215698242188	-442.6653747558594	3.293516159057617	1022.067749023438	-605.1114501953125	8.45319938659668	1084.126220703125	-526.9636840820312	233.6564636230469	1267.51171875	-549.0174560546875	-13.31179332733154	1230.281127929688	-513.09716796875	49.40341949462891	1496.0712890625	-514.3707275390625	197.8314514160156	1394.47705078125	-539.4270629882812	-0.6644348502159119	1356.740234375	-435.7662353515625	10.57580375671387	1464.090454101562	-607.1270751953125	99.30464935302734	1469.219970703125	-697.7554931640625	29.75625419616699	1359.93310546875	-773.0255126953125	-28.76967620849609	1155.32861328125	-814.7546997070312	-62.03865051269531	1144.708251953125	-714.6675415039062	8.641822814941406	885.88330078125	-790.7131958007812	-75.34125518798828	891.9920654296875	-822.5198974609375	-43.97179412841797	1040.35791015625	-830.7197875976562	-9.406650543212891	697.2052612304688	-784.7698974609375	-64.04813385009766	796.6609497070312	-831.044921875	3.223375797271729	789.1398315429688	-809.7418823242188	147.1737976074219	1462.962890625	-354.8027648925781	135.2124481201172	1392.834106445312	-285.7407531738281	66.27342987060547	1130.634521484375	-259.5479736328125	52.93455123901367	1107.722534179688	-355.4741821289062	215.6011199951172	894.5392456054688	-337.7665100097656	168.2756500244141	861.3750610351562	-266.2380676269531	84.34706878662109	1050.595581054688	-251.3342437744141	263.8538208007812	722.7742309570312	-386.2855529785156	268.7607421875	795.2372436523438	-346.3256530761719	224.47509765625	770.8294067382812	-289.8668212890625	166.2404632568359	1679.16748046875	-578.9469604492188	282.0177001953125	1641.606811523438	-397.2270812988281	321.5289001464844	1654.456787109375	-487.2320556640625	115.5264434814453	1657.7412109375	-446.3385620117188	88.31565093994141	924.7675170898438	-733.4055786132812	147.8063049316406	901.7261962890625	-360.8786010742188	245.2842254638672	934.2783813476562	-448.4556579589844	206.3176879882812	974.3955078125	-679.8184814453125	315.00927734375	535.8672485351562	-714.3767700195312	228.0407562255859	645.60205078125	-752.6793212890625	386.53662109375	46.46490859985352	-788.8689575195312	325.9118957519531	293.4967956542969	-770.5496826171875	567.4605102539062	94.22869110107422	-662.9872436523438	507.6177978515625	82.81233978271484	-664.44775390625	506.5106811523438	74.03349304199219	-771.1485595703125	307.4015502929688	33.01693344116211	-759.12255859375	51.07197952270508	481.0556945800781	-446.1394958496094	140.7465209960938	735.7471923828125	-387.5127258300781	-249.7147979736328	75.63010406494141	-434.4132080078125	-17.99187469482422	368.1448669433594	-446.6313171386719	-102.9673690795898	36.80817794799805	-610.8903198242188	-163.3146209716797	54.07671356201172	-593.3038330078125	-122.000114440918	39.35076141357422	-505.5069274902344	-316.4864501953125	102.0780334472656	-441.0638427734375	
417	4.16	41.36666107177734	1024.656616210938	-447.4074401855469	14.85097217559814	1021.515991210938	-610.2543334960938	18.90217781066895	1083.221069335938	-532.0405883789062	243.4351348876953	1267.128662109375	-550.9235229492188	-3.730731725692749	1229.376220703125	-518.6961059570312	57.82853698730469	1495.456909179688	-519.2774658203125	207.1642913818359	1393.981567382812	-541.91259765625	7.205936431884766	1355.934448242188	-441.3663635253906	20.94138526916504	1463.189208984375	-612.521728515625	110.9421081542969	1468.55322265625	-701.8343505859375	42.73846817016602	1359.098266601562	-778.2071533203125	-14.80761528015137	1154.35595703125	-821.052978515625	-49.75616836547852	1143.536499023438	-721.5247802734375	23.4776668548584	885.0745239257812	-796.2908325195312	-59.96837615966797	890.8195190429688	-829.5826416015625	-29.17331314086914	1039.311157226562	-837.2345581054688	6.509192943572998	696.499755859375	-790.8018798828125	-47.98970031738281	795.5397338867188	-837.9404296875	18.99885940551758	788.4282836914062	-815.5029907226562	153.5944061279297	1462.439331054688	-358.0780639648438	140.6003570556641	1392.326416015625	-289.2532043457031	71.18830871582031	1130.361083984375	-263.7350769042969	59.27489471435547	1107.248291015625	-359.8432922363281	219.1017608642578	892.2572631835938	-338.3729858398438	170.1244964599609	860.021240234375	-267.4901428222656	88.44959259033203	1050.332641601562	-254.9309844970703	266.1358032226562	719.5706176757812	-384.8973693847656	271.0869445800781	792.0753784179688	-345.2873840332031	225.5838317871094	768.6673583984375	-289.4306335449219	175.8205108642578	1678.85595703125	-581.9286499023438	288.9642333984375	1641.260009765625	-398.5108337402344	329.7417297363281	1654.230712890625	-487.9667358398438	123.1278533935547	1657.279663085938	-450.1423034667969	102.1264572143555	924.3948974609375	-737.1109619140625	156.369384765625	901.0989379882812	-364.2896118164062	254.7663269042969	933.8264770507812	-450.1664733886719	219.1950531005859	974.1882934570312	-682.085205078125	329.2964782714844	536.017578125	-713.152099609375	243.1461639404297	645.8735961914062	-752.2609252929688	391.5074462890625	44.50695419311523	-787.6025390625	337.1584777832031	292.4310607910156	-769.1336669921875	571.480712890625	84.73622894287109	-657.4741821289062	511.4615783691406	75.33837890625	-660.3599853515625	512.1116943359375	67.408935546875	-767.3115234375	311.3916015625	34.18135070800781	-759.0621948242188	60.68804931640625	479.87841796875	-448.4618835449219	149.4698486328125	735.1292114257812	-390.0634155273438	-247.861083984375	79.36863708496094	-434.6500244140625	-9.926474571228027	367.4605712890625	-448.4575500488281	-102.8404083251953	36.83066558837891	-610.8243408203125	-162.2976837158203	55.19147491455078	-593.5493774414062	-121.2275009155273	39.31472396850586	-505.7785339355469	-313.741455078125	107.803337097168	-441.777587890625	
418	4.17	50.8002815246582	1024.25732421875	-451.9237365722656	26.48543357849121	1021.228759765625	-615.1077270507812	29.50079727172852	1082.578125	-536.8860473632812	253.2652893066406	1266.957641601562	-552.714599609375	5.976095676422119	1228.71728515625	-524.165771484375	66.42536926269531	1495.067504882812	-524.130859375	216.5760498046875	1393.70263671875	-544.3201293945312	15.19019889831543	1355.368041992188	-446.9403076171875	31.51478385925293	1462.531127929688	-617.8768920898438	122.7372589111328	1468.094970703125	-705.8131103515625	55.96985244750977	1358.433471679688	-783.3093872070312	-0.4034735262393951	1153.50537109375	-827.2821044921875	-37.06275177001953	1142.474243164062	-728.3707885742188	38.6430549621582	884.3428344726562	-801.7760620117188	-44.15271377563477	889.7919311523438	-836.6080932617188	-13.92032623291016	1038.400024414062	-843.6866455078125	22.72262001037598	695.8610229492188	-796.7786865234375	-31.51394081115723	794.5743408203125	-844.8093872070312	35.08719253540039	787.7885131835938	-821.1753540039062	160.1290435791016	1462.12939453125	-361.2958984375	146.0656585693359	1391.995971679688	-292.7614135742188	76.23653411865234	1130.252563476562	-268.0198974609375	65.76728057861328	1106.944458007812	-364.2994995117188	222.4586181640625	890.0347290039062	-338.9972839355469	171.7522735595703	858.8171997070312	-268.851806640625	92.61016845703125	1050.249389648438	-258.643798828125	268.1286010742188	716.4256591796875	-383.4647521972656	273.1668701171875	788.9943237304688	-344.2070922851562	226.3907470703125	766.6253051757812	-289.0071411132812	185.5260925292969	1678.784423828125	-584.8314208984375	295.9402465820312	1641.115234375	-399.7052917480469	338.0111999511719	1654.238647460938	-488.595703125	130.8045654296875	1657.04345703125	-453.9159851074219	115.9239883422852	924.4075927734375	-740.6047973632812	165.2731628417969	900.6187133789062	-367.7988586425781	264.3132629394531	933.5729370117188	-451.8330688476562	232.1335144042969	974.244140625	-684.2439575195312	343.4860229492188	536.4373779296875	-712.124755859375	258.1935424804688	646.55126953125	-751.7506713867188	395.0745849609375	42.71661758422852	-786.9383544921875	347.7351989746094	291.6357116699219	-768.178466796875	574.5313110351562	75.31451416015625	-653.2978515625	514.3743286132812	68.10918426513672	-657.3717041015625	516.2628173828125	60.80069351196289	-764.6005249023438	314.1559143066406	35.64353561401367	-759.3289794921875	71.15748596191406	478.568359375	-450.7850646972656	158.5647583007812	734.5372314453125	-392.6346130371094	-245.6559143066406	83.52433776855469	-434.9529113769531	-1.120322465896606	366.7051391601562	-450.3011779785156	-102.7277603149414	36.86975860595703	-610.73486328125	-161.0544281005859	56.40243911743164	-593.825927734375	-120.3910903930664	39.22677993774414	-506.1232604980469	-310.4044189453125	114.1476211547852	-442.6631164550781	
